<mxfile host="app.diagrams.net" modified="2024-07-16T17:07:49.404Z" agent="Mozilla/5.0 (Windows NT 10.0; Win64; x64) AppleWebKit/537.36 (KHTML, like Gecko) Chrome/126.0.0.0 Safari/537.36" version="24.6.5" etag="PrkkGTu1gYX1T41q0MEB" type="github">
  <diagram name="Page-1" id="oTyJjSvSMxUlCIiq07Jf">
    <mxGraphModel>
      <root>
        <mxCell id="0" />
        <mxCell id="1" parent="0" />
      </root>
    </mxGraphModel>
  </diagram>
</mxfile>
